HIERARCHY
ROOT Hips
{
    OFFSET 0.000000 0.000000 0.000000
    CHANNELS 6 Xposition Yposition Zposition Zrotation Xrotation Yrotation
    JOINT Spine
    {
        OFFSET -0.000000 14.517291 0.000000
        CHANNELS 3 Zrotation Xrotation Yrotation
        JOINT Spine1
        {
            OFFSET -0.000000 37.558300 0.000000
            CHANNELS 3 Zrotation Xrotation Yrotation
            JOINT Neck
            {
                OFFSET -0.000000 37.404057 3.400369
                CHANNELS 3 Zrotation Xrotation Yrotation
                JOINT Head
                {
                    OFFSET -0.000000 24.785618 -3.540803
                    CHANNELS 3 Zrotation Xrotation Yrotation
                    End Site
                    {
                        OFFSET -0.000000 35.408028 0.000000
                    }
                }
            }
            JOINT LeftShoulder
            {
                OFFSET 6.992933 33.973492 -0.192664
                CHANNELS 3 Zrotation Xrotation Yrotation
                JOINT LeftArm
                {
                    OFFSET 21.527611 0.000000 0.000000
                    CHANNELS 3 Zrotation Xrotation Yrotation
                    JOINT LeftForeArm
                    {
                        OFFSET 56.353916 0.000000 0.000000
                        CHANNELS 3 Zrotation Xrotation Yrotation
                        JOINT LeftHand
                        {
                            OFFSET 47.774071 0.000000 0.000000
                            CHANNELS 3 Zrotation Xrotation Yrotation
                            End Site
                            {
                                OFFSET 26.556021 0.000000 0.000000
                            }
                        }
                    }
                }
            }
            JOINT RightShoulder
            {
                OFFSET -7.065357 33.973492 -0.192664
                CHANNELS 3 Zrotation Xrotation Yrotation
                JOINT RightArm
                {
                    OFFSET -21.527611 0.000000 0.000000
                    CHANNELS 3 Zrotation Xrotation Yrotation
                    JOINT RightForeArm
                    {
                        OFFSET -56.353916 0.000000 0.000000
                        CHANNELS 3 Zrotation Xrotation Yrotation
                        JOINT RightHand
                        {
                            OFFSET -47.774071 0.000000 0.000000
                            CHANNELS 3 Zrotation Xrotation Yrotation
                            End Site
                            {
                                OFFSET -26.556021 0.000000 0.000000
                            }
                        }
                    }
                }
            }
        }
    }
    JOINT LeftUpLeg
    {
        OFFSET 17.704014 0.000000 0.000000
        CHANNELS 3 Zrotation Xrotation Yrotation
        JOINT LeftLeg
        {
            OFFSET -0.000000 -81.181816 0.000000
            CHANNELS 3 Zrotation Xrotation Yrotation
            JOINT LeftFoot
            {
                OFFSET -0.000000 -62.821102 0.000000
                CHANNELS 3 Zrotation Xrotation Yrotation
                JOINT LeftToeBase
                {
                    OFFSET -0.000000 -11.507608 26.556021
                    CHANNELS 3 Zrotation Xrotation Yrotation
                    End Site
                    {
                        OFFSET -0.000000 0.000000 7.081605
                    }
                }
            }
        }
    }
    JOINT RightUpLeg
    {
        OFFSET -17.704014 0.000000 0.000000
        CHANNELS 3 Zrotation Xrotation Yrotation
        JOINT RightLeg
        {
            OFFSET -0.000000 -81.181816 0.000000
            CHANNELS 3 Zrotation Xrotation Yrotation
            JOINT RightFoot
            {
                OFFSET -0.000000 -62.821102 0.000000
                CHANNELS 3 Zrotation Xrotation Yrotation
                JOINT RightToeBase
                {
                    OFFSET -0.000000 -11.507608 26.556021
                    CHANNELS 3 Zrotation Xrotation Yrotation
                    End Site
                    {
                        OFFSET -0.000000 0.000000 7.081605
                    }
                }
            }
        }
    }
}
MOTION
Frames:    12
Frame Time:    0.008333
34.953060    148.146683    -84.600952    0.436324    -3.312457    33.005478    -0.714753    1.850684    -0.127754    -2.460693    0.900907    -0.028099    1.190171    6.899383    -16.238401    13.199773    -5.468501    -14.559516    0.872659    9.336014    -13.296927    -32.969891    21.670830    -46.758614    -4.813949    -24.837763    -117.570023    -9.970310    -30.751137    -14.507111    -0.385893    11.155455    -4.265411    28.902519    15.153778    40.034500    -10.205459    4.894162    40.802017    -21.830025    1.822776    34.567356    28.248318    -4.088387    -3.907177    -13.801747    35.821911    -22.885824    -6.617031    -31.465042    42.478729    0.000000    0.000000    0.000000    -27.432856    -13.106999    -6.719458    6.689908    20.452150    -9.735408    15.795135    3.336260    -15.306097    0.000000    0.000000    0.000000    
34.958176    148.136932    -84.563545    0.451021    -3.338799    32.991379    -0.722312    1.850022    -0.120563    -2.464542    0.906650    -0.024260    1.209698    6.900368    -16.235128    13.141782    -5.477164    -14.567567    0.869221    9.330350    -13.303427    -32.969849    21.675594    -46.761112    -4.811353    -24.834911    -117.561531    -9.972610    -30.743732    -14.500893    -0.395115    11.132573    -4.284257    28.935867    15.143033    40.003868    -10.175166    4.919840    40.839172    -21.814634    1.836027    34.614147    28.247671    -4.032330    -3.927348    -13.790628    35.811722    -22.920097    -6.601544    -31.505020    42.527191    0.000000    0.000000    0.000000    -27.439589    -13.106781    -6.793481    6.685914    20.530310    -9.696065    15.793764    3.310902    -15.238375    0.000000    0.000000    0.000000    
34.964859    148.127350    -84.529427    0.463161    -3.365907    32.980709    -0.722501    1.857150    -0.121742    -2.480822    0.894784    -0.025989    1.187822    6.918966    -16.236420    13.166134    -5.476669    -14.562354    0.872970    9.337670    -13.291737    -32.965096    21.680084    -46.762829    -4.810333    -24.829102    -117.553635    -9.973880    -30.735680    -14.501206    -0.395818    11.155460    -4.297349    28.949104    15.151202    40.002293    -10.167950    4.861196    40.895836    -21.802187    1.809100    34.496979    28.246496    -3.991423    -3.938538    -13.773024    35.818375    -22.935566    -6.577037    -31.517410    42.555267    0.000000    0.000000    0.000000    -27.446541    -13.097116    -6.886811    6.681824    20.595366    -9.648524    15.778812    3.288333    -15.160384    0.000000    0.000000    0.000000    
34.980064    148.116730    -84.490288    0.477879    -3.405172    32.974575    -0.717304    1.869811    -0.130372    -2.498522    0.888117    -0.028689    1.176938    6.915224    -16.226959    13.165636    -5.455635    -14.553992    0.867904    9.331436    -13.275819    -32.968636    21.690767    -46.744186    -4.817249    -24.804325    -117.550110    -9.976293    -30.721498    -14.498378    -0.392960    11.157486    -4.313940    28.960356    15.169138    39.999893    -10.158834    4.845763    40.927425    -21.820164    1.800665    34.435299    28.254486    -3.943511    -3.957158    -13.762750    35.840694    -22.991539    -6.544467    -31.543034    42.604687    0.000000    0.000000    0.000000    -27.446163    -13.064615    -6.992444    6.662745    20.646021    -9.574599    15.789360    3.266285    -15.101495    0.000000    0.000000    0.000000    
34.994091    148.106476    -84.460426    0.490522    -3.442042    32.962090    -0.720356    1.879744    -0.126102    -2.515817    0.882124    -0.026612    1.156774    6.873836    -16.209024    13.203434    -5.390052    -14.534268    0.882452    9.334693    -13.275678    -32.975620    21.695015    -46.732601    -4.837368    -24.783274    -117.550018    -9.948364    -30.736040    -14.462911    -0.380570    11.153408    -4.316547    28.986883    15.172149    39.957150    -10.140970    4.825925    40.983093    -21.847536    1.783960    34.373531    28.267328    -3.906789    -3.960738    -13.763535    35.875984    -23.021152    -6.553644    -31.578382    42.629940    0.000000    0.000000    0.000000    -27.447519    -13.037788    -7.053766    6.661450    20.684969    -9.545337    15.768102    3.258260    -15.010677    0.000000    0.000000    0.000000    
35.011047    148.095673    -84.429398    0.497813    -3.479440    32.955944    -0.729817    1.893592    -0.130436    -2.511794    0.865169    -0.028726    1.162925    6.857131    -16.207474    13.159954    -5.355797    -14.545281    0.887767    9.332096    -13.271254    -33.004562    21.688631    -46.693359    -4.854976    -24.731617    -117.548355    -9.945808    -30.711849    -14.471570    -0.373564    11.170088    -4.337973    29.022810    15.133554    39.949654    -10.096508    4.848052    41.024963    -21.886166    1.798702    34.291061    28.284245    -3.878145    -3.966259    -13.770758    35.918407    -23.030762    -6.531064    -31.592184    42.643093    0.000000    0.000000    0.000000    -27.444269    -13.003442    -7.125781    6.655109    20.712852    -9.501405    15.781053    3.243966    -14.954446    0.000000    0.000000    0.000000    
35.028873    148.088959    -84.405281    0.502288    -3.519393    32.946548    -0.733824    1.917295    -0.130749    -2.513763    0.838591    -0.030433    1.159038    6.849137    -16.208117    13.142135    -5.329428    -14.551960    0.897847    9.336810    -13.255379    -33.009193    21.695755    -46.677872    -4.864627    -24.707838    -117.542511    -9.956242    -30.701134    -14.469500    -0.367053    11.189265    -4.344192    29.069086    15.077361    39.922741    -10.049321    4.890342    41.075806    -21.942421    1.830053    34.198635    28.305548    -3.850207    -3.945862    -13.761712    35.968674    -23.069414    -6.513435    -31.597771    42.648270    0.000000    0.000000    0.000000    -27.429462    -12.974715    -7.175591    6.641073    20.741127    -9.464988    15.784165    3.239640    -14.917116    0.000000    0.000000    0.000000    
35.046474    148.078873    -84.389221    0.501276    -3.550710    32.933422    -0.740544    1.932306    -0.131114    -2.520383    0.809889    -0.030887    1.190765    6.862862    -16.207256    13.096267    -5.344709    -14.560440    0.908743    9.335252    -13.242073    -33.007813    21.706823    -46.653812    -4.880995    -24.667408    -117.537659    -9.885196    -30.702206    -14.352092    -0.346846    11.208074    -4.337674    29.100983    15.038193    39.887825    -10.014448    4.908755    41.120152    -21.966579    1.849438    34.116917    28.329035    -3.836729    -3.931386    -13.781444    36.023365    -23.055386    -6.499566    -31.604227    42.638180    0.000000    0.000000    0.000000    -27.418785    -12.960591    -7.201483    6.641062    20.770220    -9.456185    15.781065    3.235391    -14.876554    0.000000    0.000000    0.000000    
35.068829    148.069809    -84.377327    0.499871    -3.584861    32.930485    -0.739081    1.943385    -0.139081    -2.527025    0.795758    -0.033832    1.189246    6.874076    -16.201818    13.091187    -5.359822    -14.553728    0.910324    9.324557    -13.235161    -33.002968    21.706839    -46.618793    -4.907610    -24.629538    -117.548317    -9.854759    -30.709826    -14.345615    -0.339547    11.216002    -4.345197    29.124702    15.034453    39.876419    -9.993896    4.901271    41.145847    -21.964981    1.852311    34.046261    28.353050    -3.826813    -3.932184    -13.805865    36.076557    -23.052505    -6.476532    -31.628252    42.644451    0.000000    0.000000    0.000000    -27.407557    -12.935223    -7.224946    6.634033    20.787062    -9.445017    15.790229    3.246357    -14.838211    0.000000    0.000000    0.000000    
35.093571    148.058243    -84.366417    0.491927    -3.611804    32.927109    -0.742183    1.945365    -0.142614    -2.540733    0.776444    -0.035367    1.213279    6.875440    -16.212385    13.081915    -5.338639    -14.570973    0.939615    9.327268    -13.231579    -33.009518    21.700502    -46.595451    -4.919173    -24.594652    -117.551643    -9.819760    -30.700411    -14.306048    -0.305062    11.230578    -4.347259    29.108721    15.066570    39.843739    -10.013110    4.865099    41.167721    -21.934334    1.835120    34.046844    28.375328    -3.825267    -3.913025    -13.805610    36.135654    -23.074354    -6.473045    -31.657450    42.630753    0.000000    0.000000    0.000000    -27.397612    -12.923351    -7.207001    6.651151    20.809265    -9.479245    15.816401    3.239849    -14.831972    0.000000    0.000000    0.000000    
35.123405    148.045700    -84.360924    0.489429    -3.646240    32.924446    -0.746143    1.949396    -0.143075    -2.543414    0.774984    -0.035587    1.220993    6.882971    -16.224880    13.084906    -5.347723    -14.583087    0.956151    9.326097    -13.243091    -33.001019    21.686659    -46.560795    -4.944849    -24.561754    -117.570984    -9.787489    -30.714195    -14.277964    -0.292193    11.228727    -4.343964    29.131651    15.058103    39.799984    -10.009447    4.878289    41.185120    -21.895203    1.856163    34.070583    28.395651    -3.812725    -3.906512    -13.811415    36.189014    -23.103392    -6.429881    -31.678696    42.645161    0.000000    0.000000    0.000000    -27.387754    -12.902670    -7.178689    6.664428    20.829460    -9.499558    15.826381    3.239141    -14.822667    0.000000    0.000000    0.000000    
35.159409    148.028198    -84.355446    0.486943    -3.679082    32.925064    -0.747363    1.950312    -0.147468    -2.551914    0.774741    -0.036351    1.203384    6.878471    -16.226570    13.124278    -5.332315    -14.577844    0.974907    9.326883    -13.249009    -32.988022    21.682461    -46.530663    -4.950264    -24.556145    -117.579086    -9.789596    -30.717661    -14.275390    -0.280812    11.217794    -4.342465    29.141216    15.088528    39.758312    -10.012274    4.875861    41.199520    -21.866203    1.862570    34.084438    28.411880    -3.793366    -3.907229    -13.807704    36.229961    -23.159424    -6.402240    -31.736866    42.672844    0.000000    0.000000    0.000000    -27.383257    -12.882430    -7.140032    6.681733    20.853531    -9.508581    15.843197    3.224739    -14.831595    0.000000    0.000000    0.000000    
